# xmcd
#
# Track frame offsets: 
#        150
#        15222
#        26547
#        41762
#        58160
#        75072
#        93372
#        107922
#        124097
#
# Disc length: 2027 seconds
#
# Revision: 0
# Processed by: cddbd v1.5.1PL0 Copyright (c) Steve Scherf et al.
# Submitted via: ExactAudioCopy v0.95a5
#
DISCID=6007e909
DTITLE=Various Artist - The Daniel Family Remembers
DYEAR=2000
DGENRE=Bluegrass
TTITLE0=Just A Rose Will Do
TTITLE1=Old Country Church
TTITLE2=Wreck on The Highway
TTITLE3=Life's Railway Tto Heaven
TTITLE4=Farther Along
TTITLE5=I Saw The Light
TTITLE6=When God Comes and Gathers His Jewels
TTITLE7=Dance The Shores of Jordan
TTITLE8=Will The Circle Be Unbroken
EXTD=
EXTT0=
EXTT1=
EXTT2=
EXTT3=
EXTT4=
EXTT5=
EXTT6=
EXTT7=
EXTT8=
PLAYORDER=
